<svg xmlns="http://www.w3.org/2000/svg" width="23.675" height="23.675" viewBox="0 0 23.675 23.675">
    <defs>
        <style>
            .cls-1{fill:#00c689}
        </style>
    </defs>
    <g id="bullet_1" data-name="bullet 1" transform="translate(-46.818 -145)">
        <path id="Caminho_1" d="M58.656 168.675a11.838 11.838 0 1 1 5.909-22.1.508.508 0 0 1-.507.879 10.824 10.824 0 1 0 5.422 9.381 10.947 10.947 0 0 0-.1-1.446 10.727 10.727 0 0 0-.624-2.445 10.864 10.864 0 0 0-.722-1.51.508.508 0 0 1 .438-.761.51.51 0 0 1 .441.254 11.763 11.763 0 0 1 1.473 4.328 11.845 11.845 0 0 1-11.733 13.418z" class="cls-1" data-name="Caminho 1"/>
        <path id="Caminho_2" d="M96.291 213.315a.5.5 0 0 1-.359-.149l-3.021-3.021a.507.507 0 1 1 .718-.717l2.487 2.487a.248.248 0 0 0 .351 0l5.509-5.509a.507.507 0 1 1 .718.718l-6.043 6.043a.5.5 0 0 1-.36.148z" class="cls-1" data-name="Caminho 2" transform="translate(-39.146 -52.193)"/>
    </g>
</svg>
