<?xml version="1.0" encoding="utf-8"?>
<!-- Generator: Adobe Illustrator 23.0.0, SVG Export Plug-In . SVG Version: 6.00 Build 0)  -->
<svg version="1.1" xmlns="http://www.w3.org/2000/svg" xmlns:xlink="http://www.w3.org/1999/xlink" x="0px" y="0px"
	 viewBox="0 0 66.9 82.3" style="enable-background:new 0 0 66.9 82.3;" xml:space="preserve">
<style type="text/css">
	._x005B_Padrão_x005D_{fill:#FFFFFF;stroke:#000000;stroke-miterlimit:10;}
	.Sombra{fill:none;}
	._x0035__x0020_pontos_x0020__x002D__x0020_Brilho_x0020_externo{fill:none;}
	.Neon_x0020_azul_x0020_{fill:none;stroke:#8AACDA;stroke-width:7;stroke-linecap:round;stroke-linejoin:round;}
	.Realce_x0020_cromo_x0020_{fill:url(#SVGID_1_);stroke:#FFFFFF;stroke-width:0.3629;stroke-miterlimit:1;}
	.Jive_GS{fill:#FFDD00;}
	.Alyssa_GS{fill:#A6D0E4;}
	.st0{display:none;}
	.st1{fill:#E5E5E5;}
	.st2{fill:#FFFFFF;}
	.st3{opacity:0.48;enable-background:new    ;}
	.st4{opacity:0.1;enable-background:new    ;}
	.st5{opacity:0.1;}
	.st6{fill:#1E73D8;}
</style>
<linearGradient id="SVGID_1_" gradientUnits="userSpaceOnUse" x1="-5034" y1="-974" x2="-5034" y2="-975">
	<stop  offset="0" style="stop-color:#656565"/>
	<stop  offset="0.618" style="stop-color:#1B1B1B"/>
	<stop  offset="0.6292" style="stop-color:#545454"/>
	<stop  offset="0.9831" style="stop-color:#3E3E3E"/>
</linearGradient>
<g id="Base">
</g>
<g id="Fundo">
</g>
<g id="Box" class="st0">
</g>
<g id="Camada_5">
</g>
<g id="Texo">
</g>
<g id="Camada_6">
</g>
<g id="novo">
	<path id="Caminho_150_2_" class="st1" d="M11.3,74c11.8,7,31.3,7.2,43.3,0.4c6.1-3.4,9.1-8.1,9-12.7c0-0.9,0-6.9,0-6.9
		s-4.2-2.6-8.8-5.3c-11.8-7-31.3-7.2-43.3-0.4c-5.4,3-9.1,5.5-9.1,5.5s0,6.6,0,7.2C2.6,66.1,5.5,70.6,11.3,74z"/>
	<path id="Caminho_151_2_" class="st2" d="M11.3,67.1c11.8,7,31.3,7.2,43.3,0.4s12.1-18,0.3-25s-31.3-7.2-43.3-0.4
		S-0.5,60.1,11.3,67.1z"/>
	<path id="Caminho_152_2_" class="st3" d="M33.5,66.6c-7.3,0-14.4-1.6-19.3-4.6C10.2,59.6,8,56.7,8.1,54s2.3-5.6,6.2-7.9
		c4.8-2.8,11.4-4.4,18.4-4.4c7.3,0,14.4,1.7,19.3,4.8c3.9,2.4,6.1,5.3,6.1,8s-2.3,5.4-6.2,7.7C47.1,65.2,40.5,66.6,33.5,66.6
		L33.5,66.6z"/>
	<path id="Caminho_153_2_" class="st3" d="M14.3,48.2c4.8-2.8,11.4-4.4,18.4-4.4c7.3,0,14.4,1.7,19.3,4.8c3.4,2.1,5.5,4.5,6,6.9
		c0.1-0.3,0.1-0.7,0.1-1c0-2.7-2.2-5.7-6.1-8c-4.9-3-12-4.8-19.3-4.8c-7.1,0-13.6,1.5-18.4,4.4c-3.9,2.3-6.2,5.1-6.2,7.9
		c0,0.4,0,0.7,0.1,1.1C8.7,52.7,10.8,50.3,14.3,48.2z"/>
	<path id="Caminho_158_2_" class="st1" d="M11.3,64.3c11.8,7,31.3,7.2,43.3,0.4c6.1-3.5,9.1-8.1,9-12.7c0-0.9,0-6.9,0-6.9
		s-4.2-2.6-8.8-5.3c-11.8-7-31.3-7.2-43.3-0.4c-5.4,3-9.1,5.5-9.1,5.5s0,6.6,0,7.2C2.6,56.4,5.5,60.9,11.3,64.3z"/>
	<path id="Caminho_159_2_" class="st2" d="M11.3,57.4c11.8,7,31.3,7.2,43.3,0.4s12.1-18,0.3-25s-31.3-7.2-43.3-0.4
		S-0.5,50.4,11.3,57.4z"/>
	<path id="Caminho_160_2_" class="st3" d="M33.5,57.1c-7.3,0-14.4-1.7-19.3-4.7c-3.9-2.4-6.1-5.3-6.1-8s2.3-5.6,6.2-7.9
		c4.8-2.8,11.4-4.4,18.4-4.4c7.3,0,14.4,1.7,19.3,4.8c3.9,2.4,6.1,5.3,6.1,8s-2.3,5.5-6.2,7.8C47.1,55.6,40.5,57.1,33.5,57.1
		L33.5,57.1z"/>
	<path id="Caminho_161_2_" class="st3" d="M14.3,38.5c4.8-2.8,11.4-4.4,18.4-4.4c7.3,0,14.4,1.7,19.3,4.8c3.4,2.1,5.5,4.5,6,6.9
		c0.1-0.3,0.1-0.7,0.1-1c0-2.7-2.2-5.7-6.1-8c-4.9-3-12-4.8-19.3-4.8c-7.1,0-13.6,1.5-18.4,4.4c-3.9,2.3-6.2,5.1-6.2,7.9
		c0,0.4,0,0.7,0.1,1.1C8.7,43,10.8,40.6,14.3,38.5z"/>
	<path id="Caminho_166_2_" class="st1" d="M11.3,54.6c11.8,7,31.3,7.2,43.3,0.4c6.1-3.5,9.1-8.1,9-12.7c0-0.9,0-6.9,0-6.9
		s-4.2-2.6-8.8-5.3c-11.8-7-31.3-7.2-43.3-0.4c-5.4,3-9.1,5.5-9.1,5.5s0,6.6,0,7.2C2.6,46.8,5.5,51.2,11.3,54.6z"/>
	<path id="Caminho_167_2_" class="st2" d="M11.3,47.7c11.8,7,31.3,7.2,43.3,0.4s12.1-18,0.3-25s-31.3-7.2-43.3-0.4
		S-0.5,40.7,11.3,47.7z"/>
	<path id="Caminho_168_2_" class="st3" d="M33.5,47c-7.3,0-14.4-1.5-19.3-4.5c-3.9-2.4-6.1-5.2-6.1-7.9s2.3-5.5,6.2-7.8
		c4.8-2.8,11.4-4.4,18.4-4.4c7.3,0,14.4,1.8,19.3,4.8c3.9,2.4,6.1,5.3,6.1,8s-2.3,5.4-6.2,7.6C47.1,45.7,40.5,47,33.5,47L33.5,47z"
		/>
	<path id="Caminho_169_2_" class="st3" d="M14.3,28.9c4.8-2.8,11.4-4.4,18.4-4.4c7.3,0,14.4,1.7,19.3,4.8c3.4,2.1,5.5,4.5,6,6.9
		c0.1-0.3,0.1-0.7,0.1-1c0-2.7-2.2-5.7-6.1-8c-4.9-3-12-4.8-19.3-4.8c-7.1,0-13.6,1.5-18.4,4.4c-3.9,2.3-6.2,5.1-6.2,7.9
		c0,0.4,0,0.7,0.1,1.1C8.7,33.3,10.8,30.9,14.3,28.9z"/>
	<path id="Caminho_174_2_" class="st1" d="M11.3,45.9c11.8,7,31.3,7.2,43.3,0.4c6.1-3.5,9.1-8.1,9-12.7c0-0.9,0-6.9,0-6.9
		s-4.2-2.6-8.8-5.3c-11.8-7-31.3-7.2-43.3-0.4c-5.4,3-9.1,5.5-9.1,5.5s0,6.6,0,7.2C2.6,38.1,5.5,42.5,11.3,45.9z"/>
	<path id="Caminho_175_2_" class="st2" d="M11.3,39c11.8,7,31.3,7.2,43.3,0.4s12.1-18,0.3-25S23.5,7.2,11.6,14
		C-0.4,20.8-0.5,32,11.3,39z"/>
	<path id="Caminho_176_2_" class="st3" d="M33.5,38.5c-7.3,0-14.4-1.6-19.3-4.6c-3.9-2.4-6.1-5.2-6.1-7.9s2.3-5.6,6.2-7.9
		c4.8-2.8,11.4-4.4,18.4-4.4c7.3,0,14.4,1.7,19.3,4.8c3.9,2.4,6.1,5.3,6.1,8s-2.3,5.4-6.2,7.7C47.1,37.1,40.5,38.5,33.5,38.5
		L33.5,38.5z"/>
	<path id="Caminho_177_2_" class="st3" d="M14.3,20.2c4.8-2.8,11.4-4.4,18.4-4.4c7.3,0,14.4,1.7,19.3,4.8c3.4,2.1,5.5,4.5,6,6.9
		c0.1-0.3,0.1-0.7,0.1-1c0-2.7-2.2-5.7-6.1-8c-4.9-3-12-4.8-19.3-4.8c-7.1,0-13.6,1.5-18.4,4.4c-3.9,2.3-6.2,5.1-6.2,7.9
		c0,0.4,0,0.7,0.1,1.1C8.7,24.6,10.8,22.2,14.3,20.2z"/>
	<path id="Caminho_182_2_" class="st1" d="M11.3,37.2c11.8,7,31.3,7.2,43.3,0.4c6.1-3.5,9.1-8.1,9-12.7c0-0.9,0-6.9,0-6.9
		s-4.2-2.6-8.8-5.3c-11.8-7-31.3-7.2-43.3-0.4c-5.4,3-9.1,5.5-9.1,5.5s0,6.6,0,7.2C2.6,29.4,5.5,33.8,11.3,37.2z"/>
	<path id="Caminho_183_2_" class="st2" d="M11.3,30.3c11.8,7,31.3,7.2,43.3,0.4s12.1-18,0.3-25S23.5-1.5,11.6,5.3
		C-0.4,12.1-0.5,23.3,11.3,30.3z"/>
	<path id="Caminho_184_2_" class="st4" d="M33.5,30c-7.3,0-14.4-1.7-19.3-4.7c-3.9-2.4-6.1-5.3-6.1-8s2.3-5.6,6.2-7.9
		C19.1,6.6,25.7,5,32.7,5C40.1,5,47.1,6.8,52,9.8c3.9,2.4,6.1,5.3,6.1,8s-2.3,5.5-6.2,7.8C47.1,28.5,40.5,30,33.5,30L33.5,30z"/>
	<path id="Caminho_185_2_" class="st4" d="M14.3,11.5c4.8-2.8,11.4-4.4,18.4-4.4c7.3,0,14.4,1.7,19.3,4.8c3.4,2.1,5.5,4.5,6,6.9
		c0.1-0.3,0.1-0.7,0.1-1c0-2.7-2.2-5.7-6.1-8c-4.9-3-12-4.8-19.3-4.8c-7.1,0-13.6,1.5-18.4,4.4c-3.9,2.3-6.2,5.1-6.2,7.9
		c0,0.4,0,0.7,0.1,1.1C8.7,15.9,10.8,13.5,14.3,11.5z"/>
	<g id="Grupo_217_2_" transform="translate(15.328 8.954)">
		<g id="Grupo_208_2_" transform="translate(0 1.632)" class="st5">
			<path id="Caminho_186_2_" d="M27.6,8.8c0-0.2-0.1-0.5-0.2-0.7c-0.1-0.3-0.3-0.6-0.5-0.9c-0.3-0.4-0.6-0.7-0.9-1
				c-0.4-0.4-0.8-0.7-1.3-1c-2.1,1.2-3.1,1.8-5.2,3l0.4,0.4c0.7,0.6,1.3,1.2,1.9,1.9c0.4,0.5,0.8,1.1,1,1.7c0.2,0.5,0.1,1.1-0.2,1.5
				c-0.4,0.6-0.9,1.1-1.6,1.4c-0.9,0.5-1.8,0.8-2.8,1c-1,0.2-2,0.2-3,0.1c-1-0.1-2-0.3-3-0.7c-1-0.3-2-0.8-2.9-1.3l-2.6,1.5
				c-0.6-0.3-0.8-0.5-1.4-0.8C6.4,14.3,6.9,14,8,13.3c-1.1-0.7-2.1-1.6-3-2.5C4.3,10,3.8,9.1,3.5,8l3.8-0.6c0,0.3,0.1,0.6,0.2,0.9
				c0.2,0.4,0.4,0.8,0.6,1.1c0.3,0.5,0.7,0.9,1.1,1.3c0.5,0.5,1,0.9,1.5,1.3c2.1-1.2,3.1-1.8,5.2-3c-0.1-0.1-0.2-0.2-0.2-0.2
				s-0.2-0.2-0.2-0.2c-0.6-0.6-1.2-1.2-1.7-1.9c-0.4-0.4-0.7-1-0.8-1.6c-0.1-0.5,0-0.9,0.2-1.3c0.4-0.5,0.9-0.9,1.4-1.2
				c0.8-0.5,1.7-0.8,2.6-1c1-0.2,1.9-0.3,2.9-0.2c1,0.1,2,0.2,3,0.5c1,0.3,2,0.7,2.9,1.1l2.5-1.5L30,2.4l-2.5,1.5
				c1,0.6,1.8,1.3,2.5,2.2c0.5,0.7,1,1.4,1.2,2.3L27.6,8.8z M18.1,4.1c-0.7,0.4-1,0.9-0.8,1.4c0.3,0.7,0.8,1.4,1.5,1.9l5-2.8
				c-1-0.5-2-0.9-3.1-1C19.8,3.5,18.9,3.7,18.1,4.1L18.1,4.1z M17.5,13.3c0.7-0.4,1-0.9,0.7-1.5c-0.4-0.8-0.9-1.5-1.6-2.1l-5,2.9
				c1,0.6,2.1,1,3.2,1.2C15.8,13.9,16.7,13.8,17.5,13.3L17.5,13.3z"/>
			<path id="Caminho_187_2_" d="M27.6,8.8c0-0.2-0.1-0.5-0.2-0.7c-0.1-0.3-0.3-0.6-0.5-0.9c-0.3-0.4-0.6-0.7-0.9-1
				c-0.4-0.4-0.8-0.7-1.3-1c-2.1,1.2-3.1,1.8-5.2,3l0.4,0.4c0.7,0.6,1.3,1.2,1.9,1.9c0.4,0.5,0.8,1.1,1,1.7c0.2,0.5,0.1,1.1-0.2,1.5
				c-0.4,0.6-0.9,1.1-1.6,1.4c-0.9,0.5-1.8,0.8-2.8,1c-1,0.2-2,0.2-3,0.1c-1-0.1-2-0.3-3-0.7c-1-0.3-2-0.8-2.9-1.3l-2.6,1.5
				c-0.6-0.3-0.8-0.5-1.4-0.8C6.4,14.3,6.9,14,8,13.3c-1.1-0.7-2.1-1.6-3-2.5C4.3,10,3.8,9.1,3.5,8l3.8-0.6c0,0.3,0.1,0.6,0.2,0.9
				c0.2,0.4,0.4,0.8,0.6,1.1c0.3,0.5,0.7,0.9,1.1,1.3c0.5,0.5,1,0.9,1.5,1.3c2.1-1.2,3.1-1.8,5.2-3c-0.1-0.1-0.2-0.2-0.2-0.2
				s-0.2-0.2-0.2-0.2c-0.6-0.6-1.2-1.2-1.7-1.9c-0.4-0.4-0.7-1-0.8-1.6c-0.1-0.5,0-0.9,0.2-1.3c0.4-0.5,0.9-0.9,1.4-1.2
				c0.8-0.5,1.7-0.8,2.6-1c1-0.2,1.9-0.3,2.9-0.2c1,0.1,2,0.2,3,0.5c1,0.3,2,0.7,2.9,1.1l2.5-1.5L30,2.4l-2.5,1.5
				c1,0.6,1.8,1.3,2.5,2.2c0.5,0.7,1,1.4,1.2,2.3L27.6,8.8z M18.1,4.1c-0.7,0.4-1,0.9-0.8,1.4c0.3,0.7,0.8,1.4,1.5,1.9l5-2.8
				c-1-0.5-2-0.9-3.1-1C19.8,3.5,18.9,3.7,18.1,4.1L18.1,4.1z M17.5,13.3c0.7-0.4,1-0.9,0.7-1.5c-0.4-0.8-0.9-1.5-1.6-2.1l-5,2.9
				c1,0.6,2.1,1,3.2,1.2C15.8,13.9,16.7,13.8,17.5,13.3L17.5,13.3z"/>
			<path id="Caminho_188_2_" d="M27.6,8.8c0-0.2-0.1-0.5-0.2-0.7c-0.1-0.3-0.3-0.6-0.5-0.9c-0.3-0.4-0.6-0.7-0.9-1
				c-0.4-0.4-0.8-0.7-1.3-1c-2.1,1.2-3.1,1.8-5.2,3l0.4,0.4c0.7,0.6,1.3,1.2,1.9,1.9c0.4,0.5,0.8,1.1,1,1.7c0.2,0.5,0.1,1.1-0.2,1.5
				c-0.4,0.6-0.9,1.1-1.6,1.4c-0.9,0.5-1.8,0.8-2.8,1c-1,0.2-2,0.2-3,0.1c-1-0.1-2-0.3-3-0.7c-1-0.3-2-0.8-2.9-1.3l-2.6,1.5
				c-0.6-0.3-0.8-0.5-1.4-0.8C6.4,14.3,6.9,14,8,13.3c-1.1-0.7-2.1-1.6-3-2.5C4.3,10,3.8,9.1,3.5,8l3.8-0.6c0,0.3,0.1,0.6,0.2,0.9
				c0.2,0.4,0.4,0.8,0.6,1.1c0.3,0.5,0.7,0.9,1.1,1.3c0.5,0.5,1,0.9,1.5,1.3c2.1-1.2,3.1-1.8,5.2-3c-0.1-0.1-0.2-0.2-0.2-0.2
				s-0.2-0.2-0.2-0.2c-0.6-0.6-1.2-1.2-1.7-1.9c-0.4-0.4-0.7-1-0.8-1.6c-0.1-0.5,0-0.9,0.2-1.3c0.4-0.5,0.9-0.9,1.4-1.2
				c0.8-0.5,1.7-0.8,2.6-1c1-0.2,1.9-0.3,2.9-0.2c1,0.1,2,0.2,3,0.5c1,0.3,2,0.7,2.9,1.1l2.5-1.5L30,2.4l-2.5,1.5
				c1,0.6,1.8,1.3,2.5,2.2c0.5,0.7,1,1.4,1.2,2.3L27.6,8.8z M18.1,4.1c-0.7,0.4-1,0.9-0.8,1.4c0.3,0.7,0.8,1.4,1.5,1.9l5-2.8
				c-1-0.5-2-0.9-3.1-1C19.8,3.5,18.9,3.7,18.1,4.1L18.1,4.1z M17.5,13.3c0.7-0.4,1-0.9,0.7-1.5c-0.4-0.8-0.9-1.5-1.6-2.1l-5,2.9
				c1,0.6,2.1,1,3.2,1.2C15.8,13.9,16.7,13.8,17.5,13.3L17.5,13.3z"/>
		</g>
		<g id="Grupo_216_2_">
			<g id="Grupo_212_2_">
				<g id="Grupo_211_2_">
					<g id="Grupo_209_2_">
						<path id="Caminho_189_2_" class="st2" d="M27.6,8.8c0-0.2-0.1-0.5-0.2-0.7c-0.1-0.3-0.3-0.6-0.5-0.9c-0.3-0.4-0.6-0.7-0.9-1
							c-0.4-0.4-0.8-0.7-1.3-1c-2.1,1.2-3.1,1.8-5.2,3l0.4,0.4c0.7,0.6,1.3,1.2,1.9,1.9c0.4,0.5,0.8,1.1,1,1.7
							c0.2,0.5,0.1,1.1-0.2,1.5c-0.4,0.6-0.9,1.1-1.6,1.4c-0.9,0.5-1.8,0.8-2.8,1c-1,0.2-2,0.2-3,0.1c-1-0.1-2-0.3-3-0.7
							c-1-0.3-2-0.8-2.9-1.3l-2.6,1.5c-0.6-0.3-0.8-0.5-1.4-0.8C6.4,14.3,6.9,14,8,13.3c-1.1-0.7-2.1-1.6-3-2.5
							C4.3,10,3.8,9.1,3.5,8l3.8-0.6c0,0.3,0.1,0.6,0.2,0.9c0.2,0.4,0.4,0.8,0.6,1.1c0.3,0.5,0.7,0.9,1.1,1.3c0.5,0.5,1,0.9,1.5,1.3
							l5.2-3c-0.1-0.1-0.2-0.2-0.2-0.2s-0.2-0.2-0.2-0.2c-0.6-0.6-1.2-1.2-1.7-1.9c-0.4-0.4-0.7-1-0.8-1.6c-0.1-0.5,0-0.9,0.2-1.3
							c0.4-0.5,0.9-0.9,1.4-1.2c0.8-0.5,1.7-0.8,2.6-1c1-0.2,1.9-0.3,2.9-0.2c1,0.1,2,0.2,3,0.5c1,0.3,2,0.7,2.9,1.1l2.5-1.5L30,2.3
							l-2.5,1.5c1,0.6,1.8,1.3,2.5,2.2c0.5,0.7,1,1.4,1.2,2.3L27.6,8.8z M18.1,4.1c-0.7,0.4-1,0.9-0.8,1.4c0.3,0.7,0.8,1.4,1.5,1.9
							l5-2.8c-1-0.5-2-0.9-3.1-1C19.8,3.5,18.9,3.7,18.1,4.1L18.1,4.1z M17.5,13.3c0.7-0.4,1-0.9,0.7-1.5c-0.4-0.8-0.9-1.5-1.6-2.1
							l-5,2.9c1,0.6,2.1,1,3.2,1.2C15.8,13.9,16.7,13.8,17.5,13.3L17.5,13.3z"/>
					</g>
					<g id="Grupo_210_2_">
						<path id="Caminho_190_2_" class="st2" d="M27.6,8.8c0-0.2-0.1-0.5-0.2-0.7c-0.1-0.3-0.3-0.6-0.5-0.9c-0.3-0.4-0.6-0.7-0.9-1
							c-0.4-0.4-0.8-0.7-1.3-1c-2.1,1.2-3.1,1.8-5.2,3l0.4,0.4c0.7,0.6,1.3,1.2,1.9,1.9c0.4,0.5,0.8,1.1,1,1.7
							c0.2,0.5,0.1,1.1-0.2,1.5c-0.4,0.6-0.9,1.1-1.6,1.4c-0.9,0.5-1.8,0.8-2.8,1c-1,0.2-2,0.2-3,0.1c-1-0.1-2-0.3-3-0.7
							c-1-0.3-2-0.8-2.9-1.3l-2.6,1.5c-0.6-0.3-0.8-0.5-1.4-0.8C6.4,14.3,6.9,14,8,13.3c-1.1-0.7-2.1-1.6-3-2.5
							C4.3,10,3.8,9.1,3.5,8l3.8-0.6c0,0.3,0.1,0.6,0.2,0.9c0.2,0.4,0.4,0.8,0.6,1.1c0.3,0.5,0.7,0.9,1.1,1.3c0.5,0.5,1,0.9,1.5,1.3
							l5.2-3c-0.1-0.1-0.2-0.2-0.2-0.2s-0.2-0.2-0.2-0.2c-0.6-0.6-1.2-1.2-1.7-1.9c-0.4-0.4-0.7-1-0.8-1.6c-0.1-0.5,0-0.9,0.2-1.3
							c0.4-0.5,0.9-0.9,1.4-1.2c0.8-0.5,1.7-0.8,2.6-1c1-0.2,1.9-0.3,2.9-0.2c1,0.1,2,0.2,3,0.5c1,0.3,2,0.7,2.9,1.1l2.5-1.5L30,2.3
							l-2.5,1.5c1,0.6,1.8,1.3,2.5,2.2c0.5,0.7,1,1.4,1.2,2.3L27.6,8.8z M18.1,4.1c-0.7,0.4-1,0.9-0.8,1.4c0.3,0.7,0.8,1.4,1.5,1.9
							l5-2.8c-1-0.5-2-0.9-3.1-1C19.8,3.5,18.9,3.7,18.1,4.1L18.1,4.1z M17.5,13.3c0.7-0.4,1-0.9,0.7-1.5c-0.4-0.8-0.9-1.5-1.6-2.1
							l-5,2.9c1,0.6,2.1,1,3.2,1.2C15.8,13.9,16.7,13.8,17.5,13.3L17.5,13.3z"/>
					</g>
				</g>
			</g>
			<g id="Grupo_215_2_">
				<g id="Grupo_214_2_">
					<g id="Grupo_213_2_">
						<path id="Caminho_191_2_" class="st6" d="M27.6,8.8c0-0.2-0.1-0.5-0.2-0.7c-0.1-0.3-0.3-0.6-0.5-0.9c-0.3-0.4-0.6-0.7-0.9-1
							c-0.4-0.4-0.8-0.7-1.3-1c-2.1,1.2-3.1,1.8-5.2,3l0.4,0.4c0.7,0.6,1.3,1.2,1.9,1.9c0.4,0.5,0.8,1.1,1,1.7
							c0.2,0.5,0.1,1.1-0.2,1.5c-0.4,0.6-0.9,1.1-1.6,1.4c-0.9,0.5-1.8,0.8-2.8,1c-1,0.2-2,0.2-3,0.1c-1-0.1-2-0.3-3-0.7
							c-1-0.3-2-0.8-2.9-1.3l-2.6,1.5c-0.6-0.3-0.8-0.5-1.4-0.8C6.4,14.3,6.9,14,8,13.3c-1.1-0.7-2.1-1.6-3-2.5
							C4.3,10,3.8,9.1,3.5,8l3.8-0.6c0,0.3,0.1,0.6,0.2,0.9c0.2,0.4,0.4,0.8,0.6,1.1c0.3,0.5,0.7,0.9,1.1,1.3c0.5,0.5,1,0.9,1.5,1.3
							l5.2-3c-0.1-0.1-0.2-0.2-0.2-0.2s-0.2-0.2-0.2-0.2c-0.6-0.6-1.2-1.2-1.7-1.9c-0.4-0.4-0.7-1-0.8-1.6c-0.1-0.5,0-0.9,0.2-1.3
							c0.4-0.5,0.9-0.9,1.4-1.2c0.8-0.5,1.7-0.8,2.6-1c1-0.2,1.9-0.3,2.9-0.2c1,0.1,2,0.2,3,0.5c1,0.3,2,0.7,2.9,1.1l2.5-1.5L30,2.3
							l-2.5,1.5c1,0.6,1.8,1.3,2.5,2.2c0.5,0.7,1,1.4,1.2,2.3L27.6,8.8z M18.1,4.1c-0.7,0.4-1,0.9-0.8,1.4c0.3,0.7,0.8,1.4,1.5,1.9
							l5-2.8c-1-0.5-2-0.9-3.1-1C19.8,3.5,18.9,3.7,18.1,4.1L18.1,4.1z M17.5,13.3c0.7-0.4,1-0.9,0.7-1.5c-0.4-0.8-0.9-1.5-1.6-2.1
							l-5,2.9c1,0.6,2.1,1,3.2,1.2C15.8,13.9,16.7,13.8,17.5,13.3L17.5,13.3z"/>
					</g>
				</g>
			</g>
		</g>
	</g>
</g>
</svg>
