<svg id="Layer_1" data-name="Layer 1" xmlns="http://www.w3.org/2000/svg" xmlns:xlink="http://www.w3.org/1999/xlink" viewBox="0 0 57.94 90.53"><defs><style>.cls-1{fill:none;}.cls-2{fill:#0074db;}.cls-3{opacity:0.02;}.cls-4{clip-path:url(#clip-path);}.cls-5{clip-path:url(#clip-path-2);}</style><clipPath id="clip-path" transform="translate(-0.57 -0.9)"><rect class="cls-1" x="40.29" y="32.58" width="18.21" height="58.71"/></clipPath><clipPath id="clip-path-2" transform="translate(-0.57 -0.9)"><rect class="cls-1" x="28.8" y="8.71" width="21.27" height="15.43"/></clipPath></defs><title>money-bag-blue</title><path class="cls-2" d="M25.29,55.18a2.32,2.32,0,0,0,.95,2,9.14,9.14,0,0,0,2.87,1.19V52.08a4.65,4.65,0,0,0-2.88.91,2.77,2.77,0,0,0-.93,2.19" transform="translate(-0.57 -0.9)"/><path class="cls-2" d="M33.43,63.69a12,12,0,0,0-3.14-1.3v6.34A5.84,5.84,0,0,0,33.44,68a2.42,2.42,0,0,0,1.11-2.15,2.37,2.37,0,0,0-1.12-2.13" transform="translate(-0.57 -0.9)"/><path class="cls-2" d="M57.76,66.1,42,32.58H17.1L1.31,66.1C-2.28,78.86,7.62,91.43,21.25,91.43H37.82c13.63,0,23.53-12.58,19.94-25.33m-20,2.23a5.67,5.67,0,0,1-1.68,2,7.53,7.53,0,0,1-2.5,1.2,12.18,12.18,0,0,1-3.06.43v3.36H28.88V71.91A16.17,16.17,0,0,1,24.49,71a13.84,13.84,0,0,1-3.81-2.1l1.63-3.08a5.62,5.62,0,0,0,1,.83,11.59,11.59,0,0,0,1.57.87,14.62,14.62,0,0,0,2,.74,12.64,12.64,0,0,0,2.23.45V62.07L28.7,62l-.4-.11a27.19,27.19,0,0,1-3-.95,7.4,7.4,0,0,1-2.1-1.2A4.7,4.7,0,0,1,22,58.05a5.5,5.5,0,0,1-.43-2.29A6.75,6.75,0,0,1,22.09,53a6.11,6.11,0,0,1,1.54-2.1,7.32,7.32,0,0,1,2.32-1.38,10.78,10.78,0,0,1,2.93-.62V45.64h1.67v3.24a12.32,12.32,0,0,1,3.84.83,14,14,0,0,1,3.11,1.7l-1.63,2.95a4.46,4.46,0,0,0-.85-.69,9.93,9.93,0,0,0-1.3-.71,10.67,10.67,0,0,0-1.62-.58,9.32,9.32,0,0,0-1.81-.3v6.63l.61.13a28.2,28.2,0,0,1,3.12.93A8.85,8.85,0,0,1,36.37,61a5.1,5.1,0,0,1,1.49,1.81,5.88,5.88,0,0,1,.53,2.61,6.37,6.37,0,0,1-.61,2.9" transform="translate(-0.57 -0.9)"/><g class="cls-3"><g class="cls-4"><path d="M57.76,66.1,42,32.58s10.41,31.47,10.7,37.77c.28,6.07-3,13-7.36,17.22a24.28,24.28,0,0,1-5,3.71C52.62,89.88,61.13,78.07,57.76,66.1" transform="translate(-0.57 -0.9)"/></g></g><path class="cls-2" d="M36.52,9.17,32.89,2.79a3.93,3.93,0,0,0-6.72,0L22.55,9.17a3.32,3.32,0,0,1-4.08,1.37L14.29,8.92c-3.51-1.36-6.75,2.4-4.59,5.34l7.79,9.88H41.59l7.79-9.88c2.15-2.94-1.09-6.7-4.59-5.34L40.6,10.54a3.32,3.32,0,0,1-4.08-1.37" transform="translate(-0.57 -0.9)"/><g class="cls-3"><g class="cls-5"><path d="M47,8.71a24.92,24.92,0,0,1-6,9.15A26.4,26.4,0,0,1,28.8,24.14H41.59l7.79-9.88A3.54,3.54,0,0,0,47,8.71" transform="translate(-0.57 -0.9)"/></g></g><path class="cls-2" d="M41.64,31.84H17.43A2.4,2.4,0,0,1,15,29.45v-2a2.4,2.4,0,0,1,2.39-2.39H41.64A2.4,2.4,0,0,1,44,27.48v2a2.4,2.4,0,0,1-2.39,2.39" transform="translate(-0.57 -0.9)"/></svg>