<?xml version="1.0" encoding="utf-8"?>
<!-- Generator: Adobe Illustrator 21.1.0, SVG Export Plug-In . SVG Version: 6.00 Build 0)  -->
<svg version="1.1" id="Layer_1" xmlns="http://www.w3.org/2000/svg" xmlns:xlink="http://www.w3.org/1999/xlink" x="0px" y="0px"
	 viewBox="0 0 135.6 72.8" style="enable-background:new 0 0 135.6 72.8;" xml:space="preserve">
<style type="text/css">
	.st0{fill:#0074DB;}
	.st1{fill:#004B86;}
	.st2{fill:#FFFFFF;}
</style>
<g>
	<rect x="2.4" y="1.1" class="st0" width="113.9" height="55.5"/>
	<path class="st1" d="M8,51.2h102.7V6.5H8V51.2z M96.5,45.6H67.7c4.6-3.3,7.6-9.5,7.6-16.4c0-7.3-3.4-13.7-8.5-17.1h29.7
		c0,4.5,4.2,10.1,8.6,10.1v16.4C100.7,38.6,96.5,41.1,96.5,45.6 M13.6,22.2c4.5,0,8.5-5.7,8.5-10.1h28.6c-5.1,3.3-8.5,9.7-8.5,17.1
		c0,6.9,3,13.1,7.6,16.4H22.1c0-4.5-4-7-8.5-7V22.2z"/>
	<path class="st0" d="M64.7,23.7c-0.2-0.2-0.4-0.4-0.7-0.6c-0.3-0.2-0.7-0.4-1.1-0.6c-0.4-0.2-0.9-0.4-1.4-0.5
		c-0.5-0.1-1-0.2-1.5-0.3v5.6l0.5,0.1c1,0.2,1.8,0.5,2.6,0.8c0.8,0.3,1.4,0.6,2,1.1c0.5,0.4,1,0.9,1.3,1.5c0.3,0.6,0.4,1.3,0.4,2.2
		c0,1-0.2,1.8-0.5,2.4c-0.3,0.7-0.8,1.2-1.4,1.7c-0.6,0.4-1.3,0.8-2.1,1c-0.8,0.2-1.7,0.3-2.6,0.4v2.8h-1.4v-2.9
		c-1.3-0.1-2.5-0.3-3.7-0.8c-1.2-0.4-2.2-1-3.2-1.8l1.4-2.6c0.2,0.2,0.5,0.5,0.9,0.7c0.4,0.3,0.8,0.5,1.3,0.7
		c0.5,0.2,1.1,0.4,1.7,0.6c0.6,0.2,1.2,0.3,1.9,0.4v-5.6c-0.1,0-0.2-0.1-0.3-0.1c-0.1,0-0.2-0.1-0.3-0.1c-1-0.3-1.8-0.5-2.5-0.8
		c-0.7-0.3-1.3-0.6-1.8-1c-0.5-0.4-0.8-0.9-1.1-1.4c-0.2-0.5-0.4-1.2-0.4-1.9c0-0.9,0.2-1.7,0.5-2.3c0.3-0.7,0.7-1.3,1.3-1.8
		c0.6-0.5,1.2-0.9,2-1.2c0.7-0.3,1.6-0.5,2.5-0.5v-2.7h1.4v2.7c1.2,0.1,2.2,0.3,3.2,0.7c1,0.4,1.9,0.9,2.6,1.4L64.7,23.7z
		 M55.8,24.4c0,0.8,0.3,1.3,0.8,1.7c0.5,0.4,1.3,0.7,2.4,1v-5.3c-1.1,0.1-1.9,0.3-2.4,0.8C56.1,23,55.8,23.6,55.8,24.4 M63.6,33.4
		c0-0.8-0.3-1.4-0.9-1.8c-0.6-0.4-1.5-0.8-2.6-1.1v5.3c1.2,0,2-0.2,2.7-0.6C63.3,34.7,63.6,34.1,63.6,33.4"/>
	<path class="st0" d="M86.3,28.9c0,2.4,2,4.4,4.4,4.4c2.4,0,4.4-2,4.4-4.4c0-2.4-2-4.4-4.4-4.4C88.2,24.5,86.3,26.4,86.3,28.9"/>
	<path class="st0" d="M32.5,28.9c0,2.4-2,4.4-4.4,4.4s-4.4-2-4.4-4.4c0-2.4,2-4.4,4.4-4.4S32.5,26.4,32.5,28.9"/>
	<rect x="19.5" y="15.2" class="st0" width="113.9" height="55.5"/>
	<path class="st1" d="M25.1,65.3h102.7V20.7H25.1V65.3z M113.6,59.7H84.8c4.6-3.3,7.6-9.5,7.6-16.4c0-7.3-3.4-13.7-8.5-17.1h29.7
		c0,4.5,4.2,10.1,8.6,10.1v16.4C117.7,52.7,113.6,55.3,113.6,59.7 M30.7,36.4c4.5,0,8.5-5.7,8.5-10.1h28.6
		c-5.1,3.3-8.5,9.7-8.5,17.1c0,6.9,3,13.1,7.6,16.4H39.2c0-4.5-4-7-8.5-7V36.4z"/>
	<path class="st2" d="M81.8,37.8c-0.2-0.2-0.4-0.4-0.7-0.6c-0.3-0.2-0.7-0.4-1.1-0.6c-0.4-0.2-0.9-0.4-1.4-0.5
		c-0.5-0.1-1-0.2-1.5-0.3v5.6l0.5,0.1c1,0.2,1.8,0.5,2.6,0.8c0.8,0.3,1.4,0.6,2,1.1c0.5,0.4,1,0.9,1.3,1.5c0.3,0.6,0.4,1.3,0.4,2.2
		c0,1-0.2,1.8-0.5,2.4c-0.3,0.7-0.8,1.2-1.4,1.7c-0.6,0.4-1.3,0.8-2.1,1c-0.8,0.2-1.7,0.3-2.6,0.4v2.8h-1.4v-2.9
		c-1.3-0.1-2.5-0.3-3.7-0.8c-1.2-0.4-2.2-1-3.2-1.8l1.4-2.6c0.2,0.2,0.5,0.5,0.9,0.7c0.4,0.3,0.8,0.5,1.3,0.7
		c0.5,0.2,1.1,0.4,1.7,0.6c0.6,0.2,1.2,0.3,1.9,0.4v-5.6c-0.1,0-0.2-0.1-0.3-0.1c-0.1,0-0.2-0.1-0.3-0.1c-1-0.3-1.8-0.5-2.5-0.8
		c-0.7-0.3-1.3-0.6-1.8-1c-0.5-0.4-0.8-0.9-1.1-1.4c-0.2-0.5-0.4-1.2-0.4-1.9c0-0.9,0.2-1.7,0.5-2.3c0.3-0.7,0.7-1.3,1.3-1.8
		c0.6-0.5,1.2-0.9,2-1.2c0.7-0.3,1.6-0.5,2.5-0.5v-2.7h1.4v2.7c1.2,0.1,2.3,0.3,3.2,0.7c1,0.4,1.9,0.9,2.6,1.4L81.8,37.8z
		 M72.9,38.5c0,0.8,0.3,1.3,0.8,1.7c0.5,0.4,1.3,0.7,2.4,1v-5.3c-1.1,0.1-1.9,0.3-2.4,0.8C73.1,37.1,72.9,37.7,72.9,38.5 M80.7,47.5
		c0-0.8-0.3-1.4-0.9-1.8c-0.6-0.4-1.5-0.8-2.6-1.1v5.3c1.2,0,2-0.2,2.7-0.6C80.3,48.9,80.7,48.3,80.7,47.5"/>
	<path class="st2" d="M103.3,43c0,2.4,2,4.4,4.4,4.4c2.4,0,4.4-2,4.4-4.4c0-2.4-2-4.4-4.4-4.4C105.3,38.6,103.3,40.6,103.3,43"/>
	<path class="st2" d="M49.5,43c0,2.4-2,4.4-4.4,4.4c-2.4,0-4.4-2-4.4-4.4c0-2.4,2-4.4,4.4-4.4C47.6,38.6,49.5,40.6,49.5,43"/>
</g>
</svg>
