<?xml version="1.0" encoding="utf-8"?>
<!-- Generator: Adobe Illustrator 23.0.3, SVG Export Plug-In . SVG Version: 6.00 Build 0)  -->
<svg version="1.1" xmlns="http://www.w3.org/2000/svg" xmlns:xlink="http://www.w3.org/1999/xlink" x="0px" y="0px"
	 viewBox="0 0 125 81" style="enable-background:new 0 0 125 81;" xml:space="preserve">
<style type="text/css">
	.st0{display:none;}
	.st1{fill:#E5E5E5;}
	.st2{fill:#FFFFFF;}
	.st3{opacity:0.48;enable-background:new    ;}
	.st4{opacity:0.57;}
	.st5{fill:url(#Caminho_156_1_);}
	.st6{fill:#F4D658;}
	.st7{fill:url(#Caminho_164_1_);}
	.st8{fill:url(#Caminho_172_1_);}
	.st9{fill:url(#Caminho_180_1_);}
	.st10{opacity:0.1;enable-background:new    ;}
	.st11{opacity:0.1;}
	.st12{fill:#1E73D8;}
	.st13{fill:#16528E;}
	.st14{opacity:0.2;enable-background:new    ;}
	.st15{fill:#E6EDED;}
	.st16{opacity:0.5;enable-background:new    ;}
	.st17{fill:#145799;}
	.st18{fill:url(#Caminho_213_1_);}
	.st19{fill:url(#Caminho_221_1_);}
	.st20{fill:url(#Caminho_229_1_);}
	.st21{fill:url(#Caminho_237_1_);}
	.st22{fill:url(#Caminho_246_1_);}
	.st23{fill:url(#Caminho_247_1_);}
	.st24{fill:#EFEFEF;}
	.st25{fill:#CCCDCE;}
	.st26{fill:url(#Caminho_192_2_);}
	.st27{fill:none;}
</style>
<g id="Base">
</g>
<g id="Fundo">
</g>
<g id="Box" class="st0">
</g>
<g id="Camada_5">
</g>
<g id="Texo">
	<g id="icone" transform="translate(0 0)">
		<g id="notas_1_" transform="translate(-201.097 -251.322)">
			<g id="Grupo_282" transform="translate(280.13 302.513)">
				<g id="Grupo_277" transform="translate(0 8.178)">
					<path id="Caminho_255" class="st24" d="M0.5,0.3L31.3,22l14.2-8V5.8l-45-9.5V0.3z"/>
				</g>
				<g id="Grupo_278" transform="translate(0 8.178)">
					<path id="Caminho_256" class="st25" d="M0.5,4.4L31.3,22l-0.2-10.4L0.5-3.8V4.4z"/>
				</g>
				<g id="Grupo_281" transform="translate(0.049)">
					<g id="Grupo_280">
						<path id="Caminho_257" class="st2" d="M0.5,4.4c10.1,6.1,20.5,12,30.8,17.8l14.3-8.1c-10.2-6-20.5-12-30.8-17.8L0.5,4.4z"/>
						<path id="Caminho_258" class="st25" d="M15.3-2.2L3.8,4.4C13,9.9,22.3,15.2,31.7,20.5l11.4-6.6C33.9,8.5,24.6,3.1,15.3-2.2z
							 M29.3,17.6c-2.6-1.5-5.3-3-7.9-4.5c2.2,0.2,4.4-0.2,6.3-1.2c1.9-1.1,2.6-2.6,2.1-3.9c2.7,1.6,5.4,3.1,8,4.7
							c-1.1,0.7-1.5,2.2-0.3,2.8l-4.2,2.4C32.2,17.1,30.7,17,29.3,17.6L29.3,17.6z M12.7,1c1.6,0.6,3.4,0.6,4.9-0.2
							c2.6,1.5,5.2,3,7.8,4.5c-2.3-0.3-4.7,0.1-6.8,1.2c-1.8,1-2.6,2.4-2.2,3.7c-2.5-1.5-5.1-2.9-7.6-4.4c1.2-0.7,0.7-1.7-0.4-2.4
							L12.7,1z"/>
						<g id="Grupo_279" transform="translate(19.01 10.917)">
							<path id="Caminho_259" class="st12" d="M7.2-1.7c0-0.1,0-0.1,0-0.2C7.1-2,7.1-2.1,7-2.1C7-2.2,6.9-2.3,6.8-2.4
								C6.7-2.5,6.6-2.6,6.4-2.7L5-1.9l0.1,0.1c0.2,0.2,0.4,0.3,0.5,0.5c0.1,0.1,0.2,0.3,0.3,0.5c0,0.1,0,0.3,0,0.4
								C5.7-0.2,5.6,0,5.4,0.1C5.1,0.2,4.9,0.3,4.6,0.3c-0.3,0-0.6,0.1-0.8,0c-0.3,0-0.6-0.1-0.8-0.2C2.7,0.1,2.4,0,2.1-0.2L1.4,0.2
								L1,0l0.8-0.4C1.4-0.6,1.2-0.8,0.9-1.1C0.7-1.3,0.6-1.6,0.5-1.9l1.1-0.2c0,0.1,0,0.2,0.1,0.2c0,0.1,0.1,0.2,0.2,0.3
								C1.9-1.4,2-1.2,2.1-1.1C2.2-1,2.4-0.9,2.5-0.8L4-1.6c0,0,0,0-0.1-0.1c0,0,0,0-0.1-0.1C3.7-1.9,3.5-2.1,3.3-2.3
								C3.2-2.4,3.2-2.5,3.1-2.7c0-0.1,0-0.3,0.1-0.4c0.1-0.1,0.2-0.3,0.4-0.3c0.2-0.1,0.5-0.2,0.7-0.3c0.3-0.1,0.5-0.1,0.8-0.1
								c0.3,0,0.6,0.1,0.8,0.1c0.3,0.1,0.6,0.2,0.8,0.3l0.7-0.4l0.4,0.2L7.2-3.1c0.3,0.2,0.5,0.4,0.7,0.6c0.2,0.2,0.3,0.4,0.3,0.6
								L7.2-1.7z M4.6-3C4.4-2.9,4.3-2.8,4.4-2.6c0.1,0.2,0.2,0.4,0.4,0.5l1.4-0.8C5.9-3,5.6-3.1,5.3-3.1C5-3.2,4.8-3.1,4.6-3L4.6-3
								z M4.4-0.4c0.2-0.1,0.3-0.3,0.2-0.4C4.5-1.1,4.4-1.3,4.2-1.4L2.8-0.6c0.3,0.2,0.6,0.3,0.9,0.3C3.9-0.2,4.2-0.3,4.4-0.4
								L4.4-0.4z"/>
						</g>
						<path id="Caminho_260" class="st12" d="M30.4,13.5c-0.6,0.4-0.6,1,0.1,1.3c0.7,0.4,1.6,0.4,2.3,0c0.6-0.4,0.6-1-0.1-1.3
							C32,13.2,31.1,13.2,30.4,13.5z"/>
						<path id="Caminho_261" class="st12" d="M15.6,5c-0.7,0.4-1.6,0.3-2.3,0c-0.7-0.4-0.7-1,0-1.3c0.7-0.4,1.6-0.3,2.3,0
							C16.2,4,16.2,4.6,15.6,5z"/>
					</g>
				</g>
			</g>
			<g id="Grupo_291" transform="translate(280.097 296.756)">
				<g id="Grupo_284" transform="translate(0.067 8.178)">
					<g id="Grupo_283">
						<path id="Caminho_262" class="st24" d="M45.5,0.3L14.7,22l-14.2-8V5.8l45-9.5L45.5,0.3z"/>
					</g>
				</g>
				<g id="Grupo_286" transform="translate(14.226 8.178)">
					<g id="Grupo_285">
						<path id="Caminho_263" class="st25" d="M31.3,4.4L0.5,22l0.2-10.4L31.3-3.8V4.4z"/>
					</g>
				</g>
				<g id="Grupo_290" transform="translate(0 0)">
					<g id="Grupo_289">
						<path id="Caminho_264" class="st2" d="M45.5,4.4c-10.1,6.1-20.5,12-30.8,17.8L0.5,14.1c10.2-6,20.5-12,30.8-17.8L45.5,4.4z"/>
						<path id="Caminho_265" class="st25" d="M2.9,13.9l11.4,6.6C23.7,15.2,33,9.9,42.3,4.4L30.7-2.2C21.4,3.2,12.2,8.5,2.9,13.9z
							 M12.6,17.8l-4.2-2.4c1.2-0.7,0.8-2.2-0.3-2.8c2.7-1.6,5.4-3.1,8-4.7c-0.5,1.3,0.2,2.8,2.1,3.9c1.9,1,4.2,1.5,6.3,1.2
							c-2.6,1.5-5.3,3-7.9,4.5C15.4,17,13.8,17.1,12.6,17.8L12.6,17.8z M37.6,3.4c-1.2,0.7-1.6,1.7-0.4,2.4c-2.5,1.5-5,3-7.6,4.4
							c0.4-1.2-0.4-2.6-2.2-3.7c-2.1-1.1-4.5-1.5-6.8-1.2c2.6-1.5,5.2-3,7.8-4.5c1.5,0.7,3.3,0.8,4.9,0.2L37.6,3.4z"/>
						<g id="Grupo_288" transform="translate(18.255 10.917)">
							<g id="Grupo_287">
								<path id="Caminho_266" class="st12" d="M0.5-1.8c0.1-0.2,0.2-0.4,0.3-0.6C1-2.7,1.3-2.9,1.6-3.1L0.8-3.5l0.4-0.2l0.7,0.4
									c0.3-0.1,0.5-0.2,0.8-0.3C3-3.7,3.3-3.7,3.6-3.8c0.3,0,0.5,0,0.8,0.1c0.3,0.1,0.5,0.1,0.7,0.3c0.2,0.1,0.3,0.2,0.4,0.3
									C5.6-3,5.7-2.8,5.6-2.7c0,0.2-0.1,0.3-0.2,0.4C5.3-2.1,5.1-1.9,4.9-1.8c0,0,0,0-0.1,0.1c0,0,0,0-0.1,0.1l1.5,0.8
									C6.4-0.9,6.5-1,6.7-1.1C6.8-1.3,6.9-1.4,7-1.5C7-1.6,7.1-1.7,7.1-1.8c0-0.1,0.1-0.2,0.1-0.2l1.1,0.2C8.2-1.6,8-1.3,7.8-1.1
									C7.6-0.9,7.3-0.6,7-0.4L7.7,0L7.4,0.2L6.6-0.2C6.4,0,6.1,0.1,5.8,0.2C5.5,0.3,5.3,0.3,5,0.4c-0.3,0-0.6,0-0.8,0
									c-0.3,0-0.5-0.1-0.8-0.3C3.2,0,3-0.2,2.9-0.3c-0.1-0.1-0.1-0.3,0-0.4C2.9-1,3-1.1,3.1-1.2c0.2-0.2,0.3-0.4,0.5-0.5l0.1-0.1
									L2.3-2.7C2.2-2.6,2.1-2.5,2-2.4C1.9-2.3,1.8-2.3,1.7-2.1C1.7-2.1,1.6-2,1.6-1.9c0,0.1,0,0.1,0,0.2L0.5-1.8z M3.5-3.1
									C3.2-3.1,2.9-3,2.6-2.9L4-2.1c0.2-0.1,0.3-0.3,0.4-0.5c0-0.1,0-0.3-0.2-0.4C3.9-3.1,3.7-3.2,3.5-3.1L3.5-3.1z M5.1-0.3
									C5.4-0.3,5.7-0.5,6-0.6L4.6-1.4C4.4-1.3,4.2-1.1,4.1-0.8c-0.1,0.2,0,0.3,0.2,0.4C4.6-0.3,4.8-0.3,5.1-0.3L5.1-0.3z"/>
							</g>
						</g>
						<path id="Caminho_267" class="st12" d="M15.6,13.5c0.6,0.4,0.6,1-0.1,1.3c-0.7,0.4-1.6,0.4-2.3,0c-0.6-0.4-0.6-1,0.1-1.3
							C14,13.2,14.9,13.2,15.6,13.5z"/>
						<path id="Caminho_268" class="st12" d="M30.4,5c0.7,0.4,1.6,0.3,2.3,0c0.7-0.4,0.7-1,0-1.3c-0.7-0.4-1.6-0.3-2.3,0
							C29.8,4,29.8,4.6,30.4,5z"/>
					</g>
				</g>
			</g>
		</g>
		<path id="seta_1_" class="st2" d="M96.7,39.1L96.7,39.1L96.7,39.1c0.2,0.1,0.4,0.1,0.6,0.1c0.1,0,0.1,0,0.2,0c0.2,0,0.3,0,0.4-0.1
			c0.1,0,0.1,0,0.2-0.1c0,0,0.1,0,0.1,0c0.2-0.1,0.3-0.2,0.4-0.3c0,0,0,0,0,0c0.1-0.1,0.3-0.3,0.3-0.4c0,0,0,0,0-0.1l5.6-10.6
			c0.4-0.7,0.2-1.5-0.5-1.9c-0.1,0-0.2-0.1-0.3-0.1c-0.9-0.3-1.9,0.1-2.3,0.9l-3,5.7c-1.1-4-2.9-7.8-5.2-11.3
			c-10.1-16-28.1-13.1-43.7-4.2c-0.7,0.4-1.1,1.2-0.8,2c0,0.1,0.1,0.1,0.1,0.2c0.6,0.7,1.6,0.9,2.4,0.4c13.8-7.9,29.8-11.2,39,3.4
			c2.2,3.4,3.9,7.2,5,11.1l-6-4.6c-0.8-0.5-1.8-0.4-2.5,0.3c-0.6,0.5-0.6,1.5-0.1,2.1c0.1,0.1,0.1,0.1,0.2,0.2l9.4,7.2
			C96.4,39,96.6,39,96.7,39.1z"/>
		<g id="moedas_2_" transform="translate(-144.213 -237.889)">
			<g id="Grupo_268" transform="translate(144.213 252.898)">
				<circle id="Elipse_9" class="st2" cx="13.1" cy="8.9" r="12.6"/>
				<ellipse id="Elipse_10" class="st10" cx="13.1" cy="8.9" rx="10.1" ry="10.1"/>
				<g id="Grupo_267" transform="translate(7.586 4.731)">
					
						<image style="overflow:visible;opacity:0.1;enable-background:new    ;" width="40" height="61" id="Retângulo_68" xlink:href="4976D09D206FB32B.png"  transform="matrix(0.2682 0 0 0.2682 0.5002 -3.7655)">
					</image>
					<g id="Grupo_266" transform="translate(0.65 0.588)">
						<g id="Grupo_265">
							<path id="Caminho_249" class="st12" d="M8,0.8C7.9,0.7,7.7,0.6,7.6,0.5C7.4,0.4,7.2,0.3,7,0.2C6.7,0.1,6.5,0,6.2-0.1
								C5.9-0.2,5.6-0.2,5.3-0.3v2.7l0.4,0.1c0.5,0.1,1,0.3,1.5,0.5C7.6,3.2,8,3.4,8.4,3.7c0.3,0.2,0.5,0.6,0.7,0.9
								C9.2,5,9.3,5.4,9.3,5.9c0,0.5-0.1,1-0.3,1.5c-0.2,0.4-0.5,0.7-0.8,1C7.8,8.6,7.4,8.8,7,8.9C6.5,9.1,6,9.1,5.5,9.2v1.7H4.5
								V9.1C3.8,9.1,3.1,8.9,2.4,8.7c-0.7-0.2-1.3-0.6-1.9-1l1-1.9C1.6,6,1.7,6.1,1.9,6.2c0.2,0.2,0.5,0.3,0.7,0.4
								c0.3,0.1,0.6,0.3,1,0.4c0.4,0.1,0.7,0.2,1.1,0.2V4.5c-0.1,0-0.2,0-0.3-0.1S4.2,4.4,4.1,4.3C3.6,4.2,3.2,4,2.7,3.9
								C2.4,3.7,2,3.5,1.7,3.2C1.5,3,1.3,2.7,1.2,2.4C1,2.1,0.9,1.7,1,1.3c0-0.5,0.1-1,0.3-1.4C1.4-0.5,1.7-0.9,2-1.2
								c0.3-0.3,0.7-0.5,1.1-0.7C3.6-2,4.1-2.1,4.5-2.2v-1.6h0.9v1.6c0.7,0,1.3,0.2,1.9,0.4c0.5,0.2,1.1,0.5,1.5,0.8L8,0.8z M3.2,1
								c0,0.3,0.1,0.6,0.4,0.8C3.9,2,4.3,2.2,4.7,2.3v-2.5C3.7-0.2,3.2,0.2,3.2,1L3.2,1z M7,6.1c0-0.3-0.2-0.7-0.4-0.8
								C6.2,5,5.8,4.8,5.3,4.7v2.5C6.5,7.2,7,6.8,7,6.1L7,6.1z"/>
						</g>
					</g>
				</g>
				<path id="Caminho_250" class="st10" d="M3.8,9.4c0-5.6,4.5-10.1,10.1-10.1c2,0,4,0.6,5.7,1.7C15.2-2.5,8.8-1.9,5.3,2.5
					C1.8,6.8,2.4,13.2,6.7,16.7C4.8,14.8,3.8,12.2,3.8,9.4L3.8,9.4z"/>
			</g>
			<g id="Grupo_272" transform="translate(155.458 237.889)">
				<ellipse id="Elipse_11" class="st2" cx="16.9" cy="12.7" rx="12.6" ry="12.6"/>
				<circle id="Elipse_12" class="st10" cx="16.9" cy="12.7" r="10.1"/>
				<g id="Grupo_271" transform="translate(11.358 8.477)">
					
						<image style="overflow:visible;opacity:0.1;enable-background:new    ;" width="40" height="62" id="Retângulo_69" xlink:href="4976D09D206FB329.png"  transform="matrix(0.2682 0 0 0.2682 0.5 -3.7654)">
					</image>
					<g id="Grupo_270" transform="translate(0.674 0.638)">
						<g id="Grupo_269">
							<path id="Caminho_251" class="st12" d="M8,0.8C7.9,0.7,7.7,0.6,7.6,0.5C7.4,0.4,7.2,0.3,7,0.2C6.8,0.1,6.5,0,6.2-0.1
								C5.9-0.2,5.6-0.2,5.3-0.3v2.7l0.4,0.1c0.5,0.1,1,0.3,1.5,0.5C7.6,3.2,8,3.4,8.4,3.7c0.3,0.2,0.5,0.6,0.7,0.9
								C9.2,5,9.3,5.4,9.3,5.9c0,0.5-0.1,1-0.3,1.5c-0.2,0.4-0.5,0.7-0.8,1C7.8,8.6,7.4,8.8,7,8.9C6.5,9.1,6,9.1,5.5,9.2v1.7H4.5
								V9.1C3.8,9.1,3.1,8.9,2.4,8.7c-0.7-0.2-1.3-0.6-1.9-1l1-1.9C1.6,6,1.7,6.1,1.9,6.2c0.2,0.2,0.5,0.3,0.7,0.4
								c0.3,0.1,0.6,0.3,1,0.4c0.4,0.1,0.7,0.2,1.1,0.2V4.5c-0.1,0-0.2,0-0.3-0.1S4.2,4.4,4.1,4.3C3.6,4.2,3.2,4,2.7,3.9
								C2.4,3.7,2,3.5,1.7,3.2C1.5,3,1.3,2.7,1.2,2.4C1,2.1,0.9,1.7,1,1.3c0-0.5,0.1-1,0.3-1.4C1.4-0.5,1.7-0.9,2-1.2
								c0.3-0.3,0.7-0.5,1.1-0.7C3.6-2,4.1-2.1,4.5-2.2v-1.6h0.9v1.6c0.7,0,1.3,0.2,1.9,0.4c0.5,0.2,1.1,0.5,1.5,0.8L8,0.8z M3.2,1
								c0,0.3,0.1,0.6,0.4,0.8C3.9,2,4.3,2.2,4.7,2.3v-2.6C3.7-0.2,3.2,0.2,3.2,1L3.2,1z M7,6.1c0-0.3-0.2-0.7-0.4-0.8
								C6.2,5,5.8,4.8,5.3,4.7v2.5C6.5,7.2,7,6.8,7,6.1L7,6.1z"/>
						</g>
					</g>
				</g>
				<path id="Caminho_252" class="st10" d="M7.6,13.2c0-5.6,4.5-10.1,10.1-10.1c2,0,4,0.6,5.7,1.7C19,1.3,12.6,1.9,9.1,6.3
					C5.6,10.6,6.2,17,10.5,20.5l0,0C8.6,18.6,7.6,16,7.6,13.2L7.6,13.2z"/>
			</g>
			<g id="Grupo_276" transform="translate(160.838 258.584)">
				<circle id="Elipse_13" class="st2" cx="14.8" cy="10.6" r="12.6"/>
				<circle id="Elipse_14" class="st10" cx="14.8" cy="10.6" r="10.1"/>
				<g id="Grupo_275" transform="translate(9.196 6.286)">
					
						<image style="overflow:visible;opacity:0.1;enable-background:new    ;" width="40" height="62" id="Retângulo_70" xlink:href="4976D09D206FB32F.png"  transform="matrix(0.2682 0 0 0.2682 0.5 -3.7654)">
					</image>
					<g id="Grupo_274" transform="translate(0.738 0.731)">
						<g id="Grupo_273">
							<path id="Caminho_253" class="st12" d="M8,0.8C7.9,0.7,7.7,0.6,7.6,0.5C7.4,0.4,7.2,0.3,7,0.2C6.8,0.1,6.5,0,6.2-0.1
								C5.9-0.2,5.6-0.2,5.3-0.3v2.7l0.4,0.1c0.5,0.1,1,0.3,1.5,0.5C7.6,3.2,8,3.4,8.4,3.7c0.3,0.2,0.5,0.6,0.7,0.9
								C9.2,5,9.3,5.4,9.3,5.9c0,0.5-0.1,1-0.3,1.5c-0.2,0.4-0.5,0.7-0.8,1C7.8,8.6,7.4,8.8,7,8.9C6.5,9.1,6,9.1,5.5,9.2v1.7H4.5
								V9.1C3.8,9.1,3.1,8.9,2.4,8.7c-0.7-0.2-1.3-0.6-1.9-1l1-1.9C1.6,6,1.7,6.1,1.9,6.2c0.2,0.2,0.5,0.3,0.7,0.4
								c0.3,0.1,0.6,0.3,1,0.4c0.4,0.1,0.7,0.2,1.1,0.2V4.5c-0.1,0-0.2,0-0.3-0.1c-0.1,0-0.2-0.1-0.3-0.1C3.6,4.2,3.2,4,2.7,3.9
								C2.4,3.7,2,3.5,1.7,3.2C1.5,3,1.3,2.7,1.2,2.4C1,2.1,0.9,1.7,1,1.3c0-0.5,0.1-1,0.3-1.4C1.4-0.5,1.7-0.9,2-1.2
								c0.3-0.3,0.7-0.5,1.1-0.7C3.6-2,4.1-2.1,4.5-2.2v-1.6h0.9v1.6c0.7,0,1.3,0.2,1.9,0.4c0.5,0.2,1.1,0.5,1.5,0.8L8,0.8z M3.2,1
								c0,0.3,0.1,0.6,0.4,0.8C3.9,2,4.3,2.2,4.7,2.3v-2.5C3.7-0.2,3.2,0.2,3.2,1L3.2,1z M7,6.1c0-0.3-0.2-0.7-0.4-0.8
								C6.2,5,5.8,4.8,5.3,4.7v2.5C6.5,7.2,7,6.8,7,6.1L7,6.1z"/>
						</g>
					</g>
				</g>
				<path id="Caminho_254" class="st10" d="M5.5,11.1C5.5,5.5,10,1,15.6,1c2,0,4,0.6,5.7,1.7C16.9-0.8,10.5-0.2,7,4.2
					C3.5,8.5,4.1,14.9,8.4,18.4C6.5,16.5,5.5,13.9,5.5,11.1L5.5,11.1z"/>
			</g>
		</g>
	</g>
</g>
</svg>
