<svg id="Layer_1" data-name="Layer 1" xmlns="http://www.w3.org/2000/svg" xmlns:xlink="http://www.w3.org/1999/xlink" viewBox="0 0 393.44 22.39"><defs><style>.cls-1,.cls-4{fill:none;}.cls-2{clip-path:url(#clip-path);}.cls-3{fill:url(#linear-gradient);}.cls-4{stroke:#0074db;stroke-miterlimit:10;}</style><clipPath id="clip-path" transform="translate(-2.03 -0.81)"><path class="cls-1" d="M12,1.31a10,10,0,0,0-10,10v1.38a10,10,0,0,0,10,10H132.52a.07.07,0,0,0,.08-.07l-4-3.76a9.36,9.36,0,0,1,0-13.73l4-3.77a0,0,0,0,0,0-.05Z"/></clipPath><linearGradient id="linear-gradient" x1="-174.98" y1="598.23" x2="-173.98" y2="598.23" gradientTransform="matrix(385.3, 0, 0, -385.3, 67418.11, 230508.63)" gradientUnits="userSpaceOnUse"><stop offset="0" stop-color="#0074db"/><stop offset="1" stop-color="#005184"/></linearGradient></defs><title>step-by-step</title><g class="cls-2"><rect class="cls-3" y="0.5" width="130.56" height="21.38"/></g><path class="cls-4" d="M264.46,1.31H385a10,10,0,0,1,10,10v1.39a10,10,0,0,1-10,10H264.48a.08.08,0,0,1-.08-.08l4-3.75a9.36,9.36,0,0,0,0-13.73l-4-3.77A0,0,0,0,1,264.46,1.31Z" transform="translate(-2.03 -0.81)"/><rect class="cls-4" x="131.19" y="0.5" width="130.56" height="21.39" rx="10" ry="10"/></svg>